<?xml version="1.0" standalone="no"?>
<!DOCTYPE svg PUBLIC "-//W3C//DTD SVG 20010904//EN"
 "http://www.w3.org/TR/2001/REC-SVG-20010904/DTD/svg10.dtd">
<svg version="1.0" xmlns="http://www.w3.org/2000/svg"
 width="512.000000pt" height="512.000000pt" viewBox="0 0 512.000000 512.000000"
 preserveAspectRatio="xMidYMid meet">

<g transform="translate(0.000000,512.000000) scale(0.100000,-0.100000)"
fill="#000000" stroke="none">
<path d="M2352 4912 c-106 -38 -175 -121 -194 -233 -13 -75 4 -149 47 -213 14
-21 25 -39 23 -40 -111 -72 -183 -157 -218 -258 -18 -51 -23 -93 -27 -220 l-6
-156 -81 -26 c-91 -28 -269 -113 -361 -171 -147 -93 -372 -300 -445 -408 -14
-20 -29 -37 -34 -37 -5 0 -25 15 -45 33 -20 17 -46 39 -59 47 l-23 15 26 35
c38 52 59 132 51 199 -18 152 -137 261 -287 261 -126 0 -214 -52 -268 -162
-49 -98 -40 -220 24 -303 l24 -32 -49 -32 c-60 -39 -113 -99 -147 -166 -49
-94 -53 -129 -53 -441 0 -272 1 -293 19 -315 19 -24 21 -24 249 -27 l229 -3 6
-162 c14 -368 116 -645 366 -988 13 -19 5 -19 -318 -19 -318 0 -332 -1 -351
-20 -19 -19 -20 -33 -20 -268 0 -228 2 -250 18 -265 17 -15 70 -17 560 -17
l541 0 3 -146 c3 -139 4 -147 27 -165 13 -10 33 -19 46 -19 14 0 96 60 226
165 l203 165 1003 0 1003 0 0 -125 c0 -151 12 -189 60 -200 25 -6 39 -2 64 16
54 40 619 501 654 533 36 34 42 72 15 104 -10 11 -168 142 -352 291 -282 229
-339 271 -366 271 -60 0 -70 -24 -73 -181 l-4 -139 -159 0 c-87 0 -159 3 -159
6 0 3 13 23 29 43 220 278 351 666 351 1035 l0 85 229 3 c211 3 231 5 251 23
21 19 21 22 18 340 l-3 320 -36 75 c-41 86 -100 156 -163 196 l-44 28 24 31
c54 71 69 187 37 281 -22 66 -101 145 -167 167 -73 25 -170 22 -231 -7 -56
-26 -127 -97 -149 -150 -38 -91 -27 -203 26 -277 l31 -43 -24 -15 c-13 -9 -43
-33 -65 -54 l-41 -37 -44 57 c-132 175 -364 370 -549 463 -25 12 -46 24 -48
25 -2 2 13 55 34 119 l37 117 -20 27 c-32 43 -65 39 -187 -18 -59 -27 -112
-50 -117 -50 -5 0 -9 47 -9 104 0 114 -18 192 -63 268 -25 42 -109 128 -155
158 l-23 15 36 70 c36 67 37 73 33 150 -3 55 -11 93 -25 120 -26 51 -99 119
-150 140 -61 26 -150 29 -211 7z m179 -155 c45 -30 74 -100 65 -153 -11 -54
-68 -109 -124 -119 -120 -20 -215 119 -152 223 44 71 143 95 211 49z m29 -446
c77 -29 134 -82 171 -157 30 -61 33 -74 37 -196 l5 -131 -34 6 c-135 23 -307
30 -437 20 -75 -7 -145 -15 -155 -18 -16 -7 -17 2 -17 107 0 133 16 197 63
260 36 48 112 103 161 117 55 16 152 12 206 -8z m480 -548 c0 -3 -7 -30 -16
-58 -27 -85 -20 -96 106 -160 152 -78 267 -162 390 -285 557 -557 610 -1425
125 -2045 -108 -138 -71 -126 -370 -123 l-257 3 73 47 c282 179 481 478 544
817 19 106 20 312 0 423 -27 158 -96 326 -193 473 -61 92 -228 259 -322 322
-179 120 -224 122 -256 15 -10 -31 -21 -61 -24 -65 -8 -10 -332 392 -325 403
5 7 272 131 290 134 5 1 17 6 25 11 21 14 193 94 203 95 4 0 7 -3 7 -7z m-604
-103 c-55 -27 -103 -55 -107 -62 -21 -33 -8 -71 46 -139 l56 -69 -43 0 c-24 0
-86 -7 -138 -14 -256 -39 -495 -161 -680 -346 -443 -446 -478 -1142 -83 -1633
l63 -78 0 -114 0 -115 -109 0 -109 0 -56 62 c-170 188 -305 462 -355 721 -161
833 381 1641 1210 1806 130 26 148 28 289 29 l115 1 -99 -49z m-1656 -78 c103
-51 108 -201 8 -262 -71 -43 -171 -11 -208 65 -23 47 -25 71 -9 112 32 86 129
125 209 85z m3446 -3 c31 -15 48 -32 63 -63 26 -53 26 -79 0 -133 -36 -74
-124 -103 -199 -65 -107 53 -107 207 0 263 45 24 84 24 136 -2z m-1662 -353
c275 -346 287 -359 340 -335 28 13 38 35 62 132 9 37 20 67 24 67 5 0 44 -26
87 -59 225 -168 369 -403 417 -680 48 -280 -20 -581 -182 -806 -39 -54 -171
-195 -183 -195 -4 0 -9 66 -11 148 -4 129 -8 157 -33 232 -53 155 -173 299
-308 370 -34 18 -63 34 -65 35 -1 1 16 21 38 45 67 73 103 157 108 254 12 222
-127 397 -347 438 -165 31 -352 -65 -430 -219 -79 -159 -57 -335 59 -466 23
-26 41 -49 39 -51 -2 -1 -31 -18 -63 -36 -78 -44 -186 -147 -234 -223 -80
-129 -101 -210 -111 -422 l-6 -140 -87 87 c-212 215 -318 469 -318 768 0 292
97 533 302 746 210 218 518 344 807 328 55 -3 88 -9 95 -18z m-1764 -92 c60
-18 133 -63 155 -98 13 -20 11 -28 -25 -97 -72 -137 -138 -334 -165 -491 l-6
-38 -185 0 -186 0 4 243 c6 274 12 304 79 381 89 101 206 137 329 100z m3490
-15 c63 -27 141 -110 166 -176 15 -40 18 -89 22 -291 l4 -242 -188 2 -187 3
-19 95 c-25 127 -80 284 -140 403 -47 94 -48 100 -33 123 21 32 84 73 148 96
65 23 155 18 227 -13z m-1750 -404 c88 -31 158 -117 175 -216 10 -54 -12 -141
-46 -188 -122 -169 -362 -153 -458 30 -30 59 -33 70 -29 134 5 77 24 123 72
173 70 75 186 102 286 67z m22 -686 c174 -36 334 -184 389 -358 16 -52 22
-104 26 -246 l6 -180 -74 -36 c-152 -76 -299 -109 -478 -109 -167 0 -297 27
-443 93 l-68 30 0 167 c0 200 10 262 58 360 64 130 193 236 333 274 66 18 179
20 251 5z m-622 -1035 c127 -103 230 -190 229 -193 0 -3 -105 -90 -232 -193
l-232 -187 -5 92 c-3 51 -9 99 -14 108 -17 37 -44 39 -586 39 l-530 0 0 145 0
145 539 0 c643 0 584 -13 589 134 2 53 6 96 8 96 3 0 108 -84 234 -186z m2510
0 c127 -103 230 -190 229 -193 0 -3 -105 -90 -232 -193 l-232 -188 -5 101 c-4
91 -7 103 -29 120 -22 18 -54 19 -985 19 l-961 1 63 55 c91 82 87 105 -33 201
l-40 32 972 1 972 0 20 26 c18 23 21 41 21 115 0 49 2 89 5 89 3 0 109 -84
235 -186z"/>
</g>
</svg>
